<svg xmlns="http://www.w3.org/2000/svg" viewBox="0 0 383.17 370.53"><defs><style>.cls-1{fill:#5b827a;}.cls-2{fill:#c25451;}.cls-3{fill:#719987;}.cls-4{fill:#c48324;}.cls-5,.cls-6{fill:#424b54;}.cls-6,.cls-8{opacity:0.85;}.cls-7,.cls-8{fill:#ebcfb2;}</style></defs><g id="Layer_2" data-name="Layer 2"><g id="Layer_1-2" data-name="Layer 1"><path class="cls-1" d="M0,180.89c1-5.71,1.84-11.43,2.9-17.12C11.15,119.51,33.23,83.62,68.58,56c24.2-18.9,51.75-30.16,82.08-34.6,5.17-.76,10.41-1.13,15.63-1.5s8.82,3,8.84,8.71c0,14.25,0,28.5,0,42.75l0,0c-13.86.66-27.43,2.69-40.65,7.25-53,18.26-87.69,73.93-80.43,129.54,4.45,34.09,20.22,61.87,47.45,82.78a117.47,117.47,0,0,0,73.66,24.83l0,.28,0,54.5c-24.9.21-48.87-4.58-71.39-15.07C49.7,330.24,16.25,288.2,3.45,229.8,2.2,224.09,1.68,218.22.77,212.43A14,14,0,0,0,0,210.14Z"/><path class="cls-2" d="M222.91,78.55q0-35.11,0-70.23c0-5.89,3-8.79,9-8.26,56.31,5,97.6,32.65,123.49,83,9,17.5,13.38,36.4,14.53,56,.44,7.49-1.91,9.93-9.31,9.94l-69.05.06c-.48-1-1-2-1.41-3.07a114.56,114.56,0,0,0-67.23-67.47Z"/><path class="cls-3" d="M285.1,246.91c5.34-11.78,9.37-24,10.88-36.86.69-5.91.8-11.88,1.18-17.82,25.94,0,51.87-.09,77.81,0,5.42,0,8.63,3.49,8.16,8.94q-5,57.51-48.15,95.83c-4.28,3.8-8.67,3.11-12.48-1.81q-17.36-22.32-34.59-44.73C287,249.23,286,248.08,285.1,246.91Z"/><path class="cls-4" d="M175.11,316a121.33,121.33,0,0,0,72-23.63,5.5,5.5,0,0,1,1.36-.49q13.1,17,26.2,34c5.39,7,4.85,10.53-2.63,15.49-24.68,16.36-51.7,26.07-81.24,28.49-5.2.42-10.43.41-15.64.61Q175.12,343.28,175.11,316Z"/><path class="cls-5" d="M175.08,94.56c34.32.76,61.79,14.94,81.44,43.08,40.42,57.89,7.35,139.66-61.83,153.29-6.42,1.26-13.08,1.34-19.63,2l.07-.27,0-22.37c7.59-1,11.25-5.11,11.32-12.64,0-2.81,0-5.61,0-8.35,2.25-.34,4-.65,5.68-.86,15.66-1.87,27.6-15.27,28.48-32,.79-15-11-30.56-25.8-33.12-6.43-1.12-13.12-.74-19.69-1V161.53c2.62,0,5.24,0,7.85-.15a19.24,19.24,0,0,1,15.2,5.66,11.11,11.11,0,0,0,16.05-.39,11.75,11.75,0,0,0-.39-16.22A37.67,37.67,0,0,0,195,139.67c-2.75-.62-5.57-.91-8.16-1.33-.37-4.71-.14-9.3-1.21-13.56-1.25-5-5.64-6.92-10.46-7.66l0-22.36Z"/><path class="cls-6" d="M175.17,94.76q0,11.19,0,22.36a2.54,2.54,0,0,0-.07.47c-7.3.68-11.16,4.88-11.22,12.23,0,2.94,0,5.88,0,8.8-1.07.11-1.56.18-2.05.21-17.65,1-30.58,13.61-31.82,31.14a32.66,32.66,0,0,0,27.29,34.45c5.81,1,11.91.37,17.87.48a.86.86,0,0,1-.05.5l0,20.42.07.35c-1,0-2-.09-3-.09-7.45.06-14.74.33-21.65-3.92-4.73-2.91-11.07-.18-13.84,4.64s-1.71,11.66,3.15,14.66a65.31,65.31,0,0,0,13.48,6.12c3.22,1.09,6.83,1,10.51,1.55,0,3,0,5.8,0,8.65.07,7.28,4,11.51,11.33,12.17l-.07.31,0,22.37c-44.91,1.12-86.86-32.5-96.54-77.38A99.1,99.1,0,0,1,161.4,95.66C165.93,95,170.58,95,175.17,94.76Z"/><path class="cls-7" d="M175.09,182.26c6.57.3,13.26-.08,19.69,1,14.79,2.56,26.59,18.16,25.8,33.12-.88,16.72-12.82,30.12-28.48,32-1.72.21-3.43.52-5.68.86,0,2.74,0,5.54,0,8.35-.07,7.53-3.73,11.62-11.32,12.64l.07-.31V226.17l-.07-.35c4.11,0,8.23.16,12.34.08A10.31,10.31,0,0,0,197.58,216a9.88,9.88,0,0,0-9.07-10.43c-4.46-.36-9-.12-13.44-.14a.86.86,0,0,0,.05-.5q0-11.18,0-22.35Z"/><path class="cls-7" d="M175.05,117.59a2.54,2.54,0,0,1,.07-.47c4.82.74,9.21,2.66,10.46,7.66,1.07,4.26.84,8.85,1.21,13.56,2.59.42,5.41.71,8.16,1.33a37.67,37.67,0,0,1,18.85,10.76,11.75,11.75,0,0,1,.39,16.22,11.11,11.11,0,0,1-16.05.39,19.24,19.24,0,0,0-15.2-5.66c-2.61.16-5.23.11-7.85.15l.07-.29Q175.1,139.42,175.05,117.59Z"/><path class="cls-6" d="M175.09,161.53v20.73l.07.29c-4-.05-7.94-.06-11.91-.16-6.26-.16-10.7-4.56-10.7-10.51s4.4-10.32,10.7-10.49c4-.1,7.94-.1,11.91-.15Z"/><path class="cls-8" d="M175.16,161.24c-4,0-7.94,0-11.91.15-6.3.17-10.7,4.51-10.7,10.49s4.44,10.35,10.7,10.51c4,.1,7.94.11,11.91.16q0,11.17,0,22.35c-6-.11-12.06.51-17.87-.48A32.66,32.66,0,0,1,130,170c1.24-17.53,14.17-30.17,31.82-31.14.49,0,1-.1,2.05-.21,0-2.92,0-5.86,0-8.8.06-7.35,3.92-11.55,11.22-12.23Q175.11,139.41,175.16,161.24Z"/><path class="cls-8" d="M175.17,226.17V270c-7.3-.66-11.26-4.89-11.33-12.17,0-2.85,0-5.7,0-8.65-3.68-.5-7.29-.46-10.51-1.55a65.31,65.31,0,0,1-13.48-6.12c-4.86-3-6-9.75-3.15-14.66s9.11-7.55,13.84-4.64c6.91,4.25,14.2,4,21.65,3.92C173.17,226.08,174.17,226.14,175.17,226.17Z"/><path class="cls-5" d="M175.07,205.4c4.48,0,9-.22,13.44.14A9.88,9.88,0,0,1,197.58,216a10.31,10.31,0,0,1-10.14,9.93c-4.11.08-8.23-.05-12.34-.08Z"/></g></g></svg>